<svg xmlns="http://www.w3.org/2000/svg" viewBox="47.5 58.3 397.4 397.6">
  <path fill="#00000c" fill-rule="evenodd" d="M225.5 58.6A199.6 199.6 0 0 0 54 205.1c-5 19.2-6.3 29.6-6.4 50.4a170 170 0 0 0 6 51 199.2 199.2 0 0 0 312.3 109.7c9.6-7.2 27.5-24.5 35.4-34.2A201 201 0 0 0 444 280.7c2-16 .7-48.3-2.5-63.4a199.7 199.7 0 0 0-161.8-157 392 392 0 0 0-54.3-1.7m27.5 68.5a57.4 57.4 0 0 0-23 9 53.9 53.9 0 0 0-20.9 27.8c-2.5 6.5-2.5 7.3-2.9 37.3l-.4 30.8H188c-12.4 0-18 .4-18.9 1.2-.8.9-1.2 6.8-1.2 20.4 0 18.8 0 19.3 2.2 20.8 1.8 1.3 5.5 1.6 19 1.6H206l.2 54.3.3 54.2 7.5 1.2c4.1.6 14 1.2 21.8 1.2l14.2.1V276h21.5c24 0 27.4-.6 29.2-5.6 1-2.7 4.3-26.5 4.3-31.3 0-1.2-1.1-3.3-2.5-4.6l-2.4-2.5H250v-22.3c0-25.4.6-27.6 8-33.9 5.6-4.9 10.2-5.8 29-5.8 14.7 0 16-.1 17-2 .6-1 1-9.5 1-20.4 0-18 0-18.5-2.2-20-1.9-1.3-5.7-1.6-23.3-1.5-11.5 0-23.5.5-26.5 1"/>
</svg>