<svg xmlns="http://www.w3.org/2000/svg" viewBox="48.6 52.5 397.5 397.4">
  <path fill="#00000c" fill-rule="evenodd" d="M226.5 52.6A200 200 0 0 0 50.3 220.5c-2.3 13.8-2.3 47 0 61a199.7 199.7 0 0 0 248.2 161.8A200.4 200.4 0 0 0 441.8 294a181 181 0 0 0 4-49.7c-.7-23.2-2.9-36.3-9.4-56-4.4-13.5-15.4-36-23.4-47.9a200.6 200.6 0 0 0-102.5-78.2 163.8 163.8 0 0 0-59-9.6 426 426 0 0 0-25 .1m-45.2 95.8a50.8 50.8 0 0 0-37.3 41.2c-.7 4.7-1 27.2-.8 66l.3 58.9 2.7 6.9a50.2 50.2 0 0 0 26.1 28.7c10.1 4.8 14.4 5 79.2 4.7 59.3-.3 60-.4 66-2.6 15.8-6 27.1-18 31.9-34.1 1.4-4.8 1.6-13.3 1.6-67 0-48.9-.3-62.7-1.4-66.7a51.7 51.7 0 0 0-24.2-31.1c-11.9-6.3-11.6-6.3-78.4-6.2-44.7 0-61.8.4-65.7 1.3m9 16.6a36.1 36.1 0 0 0-25.5 19.8l-3.3 6.7v119l2.7 5.7a39 39 0 0 0 17.6 17.6l5.7 2.7h120l5.6-2.8a42 42 0 0 0 17.7-18.5l2.7-5.7v-117l-3.2-6.7c-4-8.4-9.7-14.2-18.1-18.1l-6.7-3.2-55.5-.2c-30.5 0-57.4.3-59.7.7m108.4 20c-3.8 3-5.2 8-3.3 12.3 1.5 3.7 5.9 6.7 9.6 6.7 3 0 7.7-2.7 9-5 .5-1 1-3.7 1-6 0-8.4-9.7-13.2-16.3-8M236 198.6A53.5 53.5 0 1 0 259 303a53.5 53.5 0 0 0-23-104.5m.3 17.8a38.7 38.7 0 0 0-22.1 20.4 37.9 37.9 0 0 0-.3 27.4 36.1 36.1 0 0 0 67-26.7c-2.7-7.2-11-16-18.4-19.5a46.8 46.8 0 0 0-26.2-1.6"/>
</svg>