<svg xmlns="http://www.w3.org/2000/svg" viewBox="60 49.1 398.1 398.2">
  <path fill="#00000c" fill-rule="evenodd" d="M235 50A199.8 199.8 0 0 0 67 196.3 198.9 198.9 0 0 0 402.6 386a196.3 196.3 0 0 0 54-110c2-13.6 2-41.9 0-55.8A199.3 199.3 0 0 0 285.2 50.5 280.5 280.5 0 0 0 235 50m-70.8 115.4c-9.7 3-17 11-19.7 21.3-1.4 5.2-1.5 14.4-1.3 63.9l.3 57.8 2.4 5.2a34 34 0 0 0 16.6 15.9c4.8 1.8 8.7 1.9 97.5 1.9 92 0 92.5 0 97-2.1a30 30 0 0 0 15-14.6l3-6.1v-60.2c0-67.5.2-65.6-7.2-74a39 39 0 0 0-9.2-7.3l-5.1-2.7-92.5-.2c-75.6-.2-93.3 0-96.8 1.2m65.3 53-2.5 2.4V247c0 18 .4 26.8 1.2 28.3 1.6 3.1 3.9 4.6 7 4.7a465 465 0 0 0 53.2-25.9 8 8 0 0 0 2.4-9.1c-1-2.8-3.6-4.4-27-16a178 178 0 0 0-28.8-13c-2 0-4 1-5.5 2.5"/>
</svg>