<svg xmlns="http://www.w3.org/2000/svg" viewBox="27 26 146 124">
  <path fill="#220b84" fill-rule="evenodd" d="M127 37a187 187 0 0 0-11 13l-6 6-8 10-5 4-12-20a53 53 0 0 0-9-12c-3-1-12 5-12 7l4 8 5 9 6 9c3 5 2 6-6 7l-15 3a849 849 0 0 0-27 4c-3 0-3 1-4 4 0 5 2 13 4 14a150 150 0 0 0 39-5c2 1 0 3-17 25-14 18-14 17-11 21 3 3 11 7 12 6l5-5a2681 2681 0 0 1 16-20 175 175 0 0 1 21-26l5 5 4 6a24 24 0 0 1 3 6l2 4a249 249 0 0 1 15 22c2 5 4 5 9 3l7-6c3-3 3-3 2-5a659 659 0 0 1-29-44l4-1a3104 3104 0 0 1 43-8c11-2 12-2 12-11 0-11 0-11-13-9l-14 3c-5 1-22 4-23 3l1-3 4-6a236 236 0 0 1 12-12l9-11c0-1-8-9-10-9-1 0-7 5-12 11"/>
</svg>