<svg xmlns="http://www.w3.org/2000/svg" viewBox="28 23 300 262">
  <path fill="#fa5d35" fill-rule="evenodd" d="m162 25-8 16c-10 22-11 24-13 22l-12-6-27-15c-4-2-8-3-8-1v12l2 22v13H74c-23 0-28 1-28 4l9 14a1444 1444 0 0 1 16 23l-12 7c-29 15-32 16-31 19a491 491 0 0 1 44 24c1 1-6 8-15 17l-16 18c0 3 3 4 16 5l35 6-4 21c-5 22-6 24-4 26 2 1 3 1 20-7a241 241 0 0 1 22-10l11-5c2 1 4 5 13 20 6 10 10 15 12 15s4-3 8-9l2-4 1-1c0-1 12-22 14-23 1-1 8 4 12 8l5 4 4 3 8 7c11 8 12 8 16-5 8-30 9-32 12-29l27 15c12 6 16 6 16 3l-3-24-3-24 16-5a71458 71458 0 0 0 31-12c0-2-9-11-25-24l-9-9 17-16 17-16c0-2-2-3-20-8l-23-7c-1-1 0-3 1-6 11-26 13-33 12-35s-3-2-35 3c-18 2-16 4-22-20l-7-22c-2-2-4-1-8 3a2328 2328 0 0 1-31 26 533 533 0 0 0-31-35l-2 2"/>
</svg>