<svg xmlns="http://www.w3.org/2000/svg" viewBox="78 34 249 220">
  <path fill="#bc5" fill-rule="evenodd" d="M167 39a7410 7410 0 0 0-11 33l-13-4c-16-7-25-9-26-9l2 8c5 17 8 28 7 29l-9 2-32 4 3 5a7555 7555 0 0 0 26 29l-3 2-33 16 3 2a501 501 0 0 1 36 20l-3 5a353 353 0 0 0-17 29l15-1 23-1h9l1 4a1026 1026 0 0 0 7 30l16-12 15-12 5 6c11 20 16 28 18 28l8-10c11-15 13-18 15-18 0 0 5 4 9 10 17 19 19 21 20 19l4-20 5-19h41l-9-17-8-18 5-3 27-11 4-2-5-4a1226 1226 0 0 0-26-19l12-15 12-14a927 927 0 0 0-42-10l1-31c1-7 1-7-1-7l-4 1-6 3-28 10a415 415 0 0 1-13-37l-13 13-14 13-23-24-8-8c-1 0-2 2-2 5"/>
</svg>